<svg xmlns="http://www.w3.org/2000/svg" width="793" height="810" fill="none" viewBox="0 0 793 810">
  <path fill="#000" d="M558.067 1.267c-3.734.533-14.4 11.066-14.4 14 0 .933-2.667 7.066-5.867 13.733-3.333 6.533-8.133 16.533-10.667 22C524.467 56.467 519 67 515 74.333c-8 14.4-15.333 29.6-15.333 31.6 0 .667-2.267 5.6-5.2 10.934-2.8 5.333-5.6 11.733-6.134 14.266-.533 2.534-1.733 5.867-2.8 7.467-1.066 1.6-1.866 4-1.866 5.333 0 1.334-.934 3.467-2 4.8-.934 1.334-2.534 6.8-3.334 12-.8 5.334-2.133 12.134-2.933 15.2-.8 3.334-.933 9.334-.4 14.534l.933 8.933-9.2-.8c-4.933-.4-19.066-1.6-31.466-2.4-22-1.6-22.4-1.6-29.6 1.333-5.734 2.4-8.667 2.8-14.267 2.134-12.8-1.6-100.133-.267-117.733 1.866-7.334.8-31.734 2-54.267 2.8-24.133.667-43.333 1.867-46.667 2.8-5.466 1.6-25.333 2.4-58.4 2.534-21.733.133-44.533 2.266-49.066 4.533-6.534 3.333-17.067 12.4-20 17.067-2 3.333-2.934 7.6-3.467 16.933-.4 6.8-1.333 13.2-2.267 14.267-2.133 2.533-.4 17.733 2.667 22.4 2 2.933 2.133 4.533 1.067 8.666-1.067 3.734-.8 8.8 1.066 20.267 1.334 8.4 2.667 23.333 2.934 33.2.266 9.867 1.066 24.267 1.733 31.867.8 7.733 1.333 16.8 1.333 20.4 0 3.466.534 6.4 1.2 6.4.534 0 .534 3.2-.133 6.933-1.467 8.533-1.733 56.267-.4 58.4.533.933 1.2 12.533 1.333 26 .134 13.333.934 26.4 1.734 28.8.8 2.533 1.6 7.867 2 12 .666 7.467.666 7.733-5.2 13.867-3.2 3.466-5.867 7.066-5.867 8 0 .933-1.333 3.066-3.067 4.8C40.2 566.2 36.067 571.8 32.6 577c-3.467 5.067-8.933 12.667-12.267 16.667-3.333 4-6 8.133-6 9.066 0 .934-2.133 4.534-4.666 8.267-2.534 3.6-4.934 8-5.467 9.867-.4 1.866-1.6 4-2.533 4.8C.6 626.6.2 630.6.333 638.067c.4 17.2 5.334 21.866 18.934 17.866 6.533-2 12.533-1.6 27.733 1.6 11.2 2.267 18.8 2.8 48.667 3.467 15.733.267 34 1.333 40.4 2.133 7.6 1.067 16.933 1.2 26.666.534 8.267-.534 17.6-.8 20.934-.534 10 .8 82.8.4 90.133-.4 6.667-.8 20.4-1.6 52.533-3.066 8.4-.4 19.067-1.334 23.6-2 9.734-1.6 29.334-2.8 46.8-2.934 6.667 0 12.667-.533 13.067-1.2.4-.666 1.333-.8 2.133-.4 4.134 2.534 47.467 4.4 98 4 28-.266 54.667.134 59.334.934 5.866.8 8.4.8 8.8-.267.266-.8 1.2-1.467 2.133-1.467s2.533-3.2 3.467-7.2c1.333-5.866 1.333-8.933.133-15.6-2.267-10.933-4.267-14.533-19.733-32.933-4-4.667-8.667-11.6-10.667-15.333-1.867-3.867-7.2-11.334-11.867-16.667-11.733-13.333-13.066-16.267-11.333-24 .667-3.467 1.733-12.533 2.133-20.267.534-7.733 2-20.266 3.467-28 1.333-7.733 2.533-19.2 2.533-25.466 0-6.4.534-17.467 1.334-24.667 1.733-17.067 2.133-24 4.666-71.2 2.267-43.867 2.934-53.6 4.8-63.333C549.8 307.933 550.6 301.4 551 297c.4-4.4 1.467-10.4 2.133-13.333.8-2.934 2-11.067 2.534-18 2.933-32 3.733-39.867 4.4-41.067 1.333-2-1.6-10.667-4.267-12.533-1.2-.934-2.667-2.8-3.2-4.134-.533-1.333-2.267-2.266-4.533-2.266-2 0-6.8-1.467-10.667-3.2-3.733-1.867-10.8-3.6-16-4.134-12.4-1.2-16.933-3.066-19.867-7.866-1.333-2.267-3.333-5.2-4.666-6.534-2.8-3.066-9.2-19.333-9.2-23.466 0-1.734.8-4.934 1.866-7.2 1.067-2.4 3.6-8.134 5.467-12.934 2-4.8 5.6-12 8-16.133 2.4-4 5.333-10.667 6.667-14.667 1.333-4 4.266-10.533 6.666-14.533 2.4-4 6.8-11.867 9.734-17.333 2.8-5.467 6.8-12.667 8.533-16 1.867-3.334 3.867-7.467 4.4-9.334.533-1.866 3.333-6.4 6.133-10.266 2.8-3.867 6.4-10.267 8-14.4 4-10.534 8.534-15.6 13.734-15.067 3.066.267 4.266 1.067 4.533 3.467.533 3.333-5.2 16.266-8.4 18.933-1.067.933-4.267 6.133-6.933 11.6-2.667 5.333-7.467 12.667-10.667 16.133-3.067 3.467-6 7.334-6.533 8.534-.4 1.333-1.2 2.4-1.867 2.4-1.067 0-14.667 22.666-14.667 24.533 0 .533-1.333 3.733-2.8 7.2-3.6 7.733-7.866 17.6-11.333 25.6-1.333 3.333-3.2 6.8-4.133 7.733-1.6 1.6-4.4 10-4.4 13.067 0 1.867 15.333 17.867 17.2 17.867.8 0 2.266 1.6 3.2 3.6 2.133 3.866 2.133 3.866 17.733 5.6 6 .666 12.667 1.6 15.067 2.133 2.666.533 4.133.4 4.133-.533 0-.8 3.467-3.067 7.733-4.934l7.6-3.6 6.267-14.8c3.467-8.133 7.467-19.066 8.933-24.133 1.467-5.2 3.867-11.733 5.467-14.667 1.467-2.8 2.667-6.266 2.667-7.6 0-2.666 1.466-6.533 7.333-19.066 2.4-5.2 6-13.2 8.133-18 2-4.8 4.667-10.134 6-12 1.2-1.867 4.8-8.134 7.867-14 8.533-16.134 8.8-16.4 13.6-16.934 3.333-.266 4.533-1.066 4.8-3.466.267-1.6-.133-2.934-.933-2.934-2.134 0-1.734-3.466.666-5.866 1.067-1.2 3.467-2.134 5.2-2.134 2.667 0 3.334.934 4.134 4.934.533 2.8 1.466 5.866 2.266 6.8.934 1.2.667 2.4-.933 4-1.2 1.333-2.133 2.933-2.133 3.466 0 .534-3.867 6-8.667 12.134-4.8 6-8.667 11.6-8.667 12.266 0 .8-1.2 2.4-2.533 3.6-1.467 1.334-2.933 4-3.467 5.867-1.2 5.467-11.066 25.2-17.333 34.933-5.333 8.4-12 23.734-10.8 24.934.267.266-1.467 4.266-3.733 8.8-3.734 7.2-5.6 12-6.8 17.733-.267.8-2 4.8-4 9.067-2 4.133-3.2 8.4-2.934 9.466.4.934.267 3.467-.266 5.6-.534 2-.4 5.334.4 7.334 1.2 3.2.8 4.133-2.534 7.866-2.266 2.267-8.533 6.267-14.266 8.8-6.8 3.2-9.867 5.467-9.467 6.667.4.933 1.867 1.733 3.333 1.733 3.067 0 12.4-4.8 16.4-8.4 4-3.733 6.4-2.266 8.934 5.6 1.333 3.867 2.933 7.867 3.733 8.934.933.933 1.867 6.666 2.133 12.8.4 6.133 1.334 17.333 2.134 25.066.8 7.734 1.6 18.534 1.733 24 .133 5.467.933 13.2 1.733 17.2.934 3.867 1.6 11.467 1.6 16.667.134 5.2.667 13.6 1.467 18.8 2 14.667 3.733 33.467 4.4 48.133.4 7.467.933 17.067 1.467 21.334.4 4.4.933 10 1.2 12.533.266 2.533 1.466 8.267 2.533 12.667 1.2 4.4 3.067 14.266 4.267 22 1.333 7.733 2.8 15.066 3.466 16.266.667 1.2 1.867 9.067 2.534 17.334.8 8.266 2 18.533 2.666 22.933 1.067 6.933.8 8.267-1.6 11.6-5.466 7.2-19.066 14.533-27.333 14.533-2.533 0-8.267.934-12.533 2-7.067 1.867-8.934 1.867-18.934 0-15.2-2.8-19.733-4.4-23.866-8.4l-3.734-3.466-.266 6.266c-.134 3.467-.267 7.334-.267 8.534-.133 1.6 2.4 3.2 7.867 5.466 10.4 4.134 32 5.2 44.8 2.267 4.666-1.067 12-2.533 16.133-3.333 4.133-.8 9.6-2.8 12-4.4 9.867-6.8 11.733-6.934 20.533-1.6 4.267 2.666 9.334 5.066 11.2 5.466 5.067 1.067 18.667 5.467 24.134 7.734 8.4 3.6 18.133 3.733 30.533.4 6.267-1.6 13.467-4.267 16-5.734 2.533-1.6 6.133-3.333 8-3.866 3.067-.934 6.267-2.667 19.067-11.067 12.666-8.4 33.866-39.733 41.333-61.2 6.8-19.2 8.4-34.267 6.4-57.867-.8-10.533-2.267-21.733-3.067-24.933-1.066-4.133-1.066-13.467-.266-31.467 1.333-30.8.8-86.266-.934-92.933-1.066-4.133-2.8-30.933-2.8-41.867.267-20.8-.133-64.533-.533-77.333-1.067-35.067-.667-61.067.933-62.133.934-.534 1.867-6.8 2.267-17.2l.667-16.134-5.2-5.333c-5.467-5.6-9.067-6.4-17.734-3.867-6 1.734-10.4 5.867-12.266 11.867-2.667 8.267-7.067 13.067-11.734 12.8-2.266-.133-5.466-1.467-7.2-2.933-7.2-6.667-12.4-7.334-18.933-2.267-5.467 4.133-10.533 3.867-11.067-.533-.533-3.467-2-3.6-9.733-.8-4.8 1.6-6.8 1.733-11.467.4C676.2 53.133 675.8 51.8 679.8 43c3.867-8.533 5.467-21.2 3.067-24.933-1.6-2.667-11.2-5.734-17.867-5.734-1.333 0-3.733-1.6-5.333-3.6-3.467-4.4-9.334-7.066-15.467-7.066-4.667 0-8.8 3.466-19.067 15.866-2.4 3.067-5.6 5.467-6.933 5.467-1.333 0-2.667.533-3.067 1.067-.933 1.6-17.733 1.866-18.8.266-.4-.666-2.533-1.333-4.666-1.333-3.2 0-4-.8-6-5.733-5.067-12.667-6.134-14.134-11.2-15.6-4.8-1.334-9.6-1.467-16.4-.4ZM579 29.133c1.733 4.267 1.733 5.067-.533 8.267l-4.267 6.4c-1.067 1.6-4.8 7.2-8.4 12.667-9.6 14.4-13.2 19.866-14.8 22.533-6.533 11.333-9.867 16.133-14.267 21.6-2.8 3.467-5.066 6.8-5.066 7.467 0 .666-1.2 2.266-2.667 3.6-1.467 1.333-2.667 3.733-2.667 5.466 0 1.734-.533 3.334-1.2 3.867-.666.4-1.6 2.4-2.133 4.4-.4 2-2.8 7.733-5.333 12.933-2.534 5.067-4.667 10.4-4.667 11.734 0 1.333-.667 3.733-1.467 5.2-1.466 2.8-1.6 2.8-3.333-.4-2.533-4.534-2.267-6.8 1.333-14.8 9.2-20.134 11.467-25.334 11.467-26.8 0-2.4 10.533-23.067 16.133-31.6 2.667-4 8.134-11.2 12.134-16 4-4.8 8.666-11.734 10.266-15.334 1.6-3.733 4.534-8.8 6.667-11.333 2-2.533 4.8-6.933 6.133-9.733 1.2-2.667 2.8-4.934 3.467-4.934.667 0 2 2.134 3.2 4.8Zm88.667 8C665.4 41.4 661.267 48.6 658.333 53c-2.933 4.4-5.733 8.933-6.266 10-.667 1.067-3.334 5.467-6.267 9.867-5.6 8.533-10 16.533-21.467 38.8-4.133 8-8.4 15.6-9.333 16.666-2.4 2.667-5.867 11.334-7.467 18.534-.666 3.2-4 11.333-7.2 17.866-3.733 7.467-6.4 14.667-6.8 19.2-.533 4.534-1.466 7.067-2.666 7.067-2.4 0-3.734-10.667-2.134-17.6 1.867-7.6 10.134-30.933 13.334-37.733 1.466-2.934 3.066-7.467 3.6-10 .533-2.534 1.733-5.6 2.666-6.667.934-1.067 2.934-4.8 4.534-8.267 1.466-3.466 3.333-6.666 4.133-7.066.667-.4 1.333-2.267 1.333-4.134 0-1.733.667-3.2 1.467-3.2.667 0 2.267-2 3.333-4.4 1.2-2.266 3.467-6.933 5.2-10.266 1.734-3.334 3.2-6.8 3.2-7.6.134-1.6 7.2-14 10.134-17.467 3.066-3.733 11.733-14.667 17.066-21.6 11.067-14 16.667-12.8 8.934 2.133Zm-81.334-.4c0 .934-3.333 6.8-7.333 12.934-11.2 17.2-12 18.666-17.067 28.666-5.333 10.667-8.266 17.334-9.466 21.6-.534 1.6-2.667 6.134-4.8 10-4.4 8-15.2 29.6-16.8 33.734a809.422 809.422 0 0 0-4.4 12.533c-3.6 10.267-6 12.933-7.334 8.4-2.133-6.667-2-12.533.534-19.2 3.333-8.667 10.4-25.6 12.933-31.067 1.733-3.733 10.533-17.333 16.133-24.666 1.467-1.867 6-9.067 10.267-16 4.267-6.934 8.267-12.934 8.8-13.334.667-.4 2-2.8 3.2-5.333 2.133-4.667 6.933-11.6 12-17.067 3.067-3.466 3.333-3.466 3.333-1.2Zm38.934-.933c1.066.933-5.2 14.8-9.067 19.867-3.467 4.666-15.6 29.866-15.6 32.266 0 .934-.4 1.734-.933 1.734-.8 0-2.4 3.466-6.667 14-.667 1.466-2.133 6-3.467 10-1.2 4-3.6 10-5.2 13.333-1.733 3.333-3.733 9.067-4.533 12.8-2.267 10.933-10.4 26.933-14.8 29.2-8.533 4.4-9.867 1.733-5.2-11.067 1.467-4.133 4.267-12.133 6-17.6 3.467-10.4 6.133-16.4 15.867-36.666 3.2-6.667 7.466-15.6 9.333-20s4.933-10.8 6.8-14.267c1.867-3.467 3.2-6.533 3.067-6.667-.534-.933 8.666-19.466 11.733-23.466C615 35.933 616.733 35 620.2 35c2.4 0 4.667.4 5.067.8ZM603.4 37.133c3.6 1.067 3.467 1.6-3.333 17.2-9.2 21.467-10.534 24.267-18.667 40.934-4.667 9.333-8.4 17.866-8.4 18.933 0 1.067-.533 2.267-1.2 2.667-.533.4-2.4 4.533-4.133 9.066-1.6 4.667-3.467 9.6-4 11.067-3.867 9.733-8.134 21.2-10.134 28-1.466 4.4-3.066 8.4-3.866 9.067-1.867 1.333-17.067-.4-18.267-2.134-.4-.8-.533-2.133-.133-3.2.4-.933-.267-1.733-1.467-1.733-2.4 0-2.933-4.667-.8-6 .8-.4 1.333-1.733 1.333-2.933 0-1.067.934-4.134 2.134-6.8 1.2-2.8 2.666-6.134 3.2-7.6 2.933-7.334 6.4-14.934 14.933-32.667 5.067-10.667 10.133-20.933 11.2-22.933 1.067-1.867 1.867-4.134 1.867-4.934 0-.933 1.066-3.2 2.533-5.2 1.333-2 5.333-8.133 8.8-13.6 17.067-26.933 19.6-29.466 28.4-27.2ZM769.533 51.8c2.267 6 .534 15.2-5.333 26-.933 1.867-3.333 7.867-5.333 13.333C755.8 99.933 753 106.2 740.2 133c-1.733 3.733-3.2 7.6-3.2 8.8 0 1.2-1.067 4.133-2.267 6.667C733.4 151 731.4 155.667 730.2 159c-1.333 3.333-3.467 8.933-4.933 12.667-3.334 8.8-4.134 10.933-4.8 13.2-.4 1.2-1.867 1.6-4.134 1.066-2.933-.533-3.333-1.066-2.666-3.466.533-1.467 1.2-4.667 1.466-6.8.8-4.934 3.2-15.2 4.267-18 .4-1.067.933-3.467 1.2-5.2.267-1.867 1.2-4.534 2-6 .8-1.467 3.067-7.467 5.2-13.467 6.133-17.867 7.733-22 13.6-33.2 3.067-6 6.8-13.867 8.267-17.467 1.6-3.733 5.466-11.2 8.933-16.666 3.333-5.467 6.4-11.334 6.933-13.067 1.2-3.467 2.8-3.867 4-.8ZM666.2 61.133c1.2 4.4.667 6.134-6.667 21.6-4.4 9.334-8.533 18-9.2 19.2-3.066 5.6-4.266 7.867-11.866 23.734-13.6 28.533-18.8 42.266-20.8 54.933-.534 3.067-2.134 8.267-3.6 11.467-2.534 5.466-2.8 5.6-5.6 3.733-1.734-1.067-4.4-2.133-6.267-2.4-2.8-.4-3.2-1.2-3.6-6.667-.4-5.333.533-8.266 5.6-18 6.133-12.266 8.267-17.866 9.467-25.866.4-2.534 2.4-7.467 4.533-10.8 5.067-7.867 11.067-18.934 18.4-33.067 3.2-6.267 7.733-14.133 10.133-17.6 2.4-3.333 6.934-10.4 10.134-15.6 3.333-5.2 6.4-9.467 6.933-9.467.667 0 1.733 2.134 2.4 4.8Zm31.067 9.2c2.133 1.867 5.066 3.334 6.533 3.334 1.333 0 2.533.8 2.533 1.733 0 .8-2.933 7.867-6.666 15.6-3.6 7.733-6.667 14.933-6.667 16.133 0 1.2-.933 2.934-2 3.867-4 3.333-21.067 41.2-26.133 57.867-2.4 8-3.867 10.666-6.134 11.6-2 .666-3.066 2.266-3.066 4.133-.134 6.267-7.734 11.867-11.334 8.267-3.2-3.2-3.2-15.734.134-22.4 1.066-2.134 1.866-4.4 1.866-5.067 0-.667 1.2-4 2.8-7.467 5.2-11.466 6.267-14.266 8.534-20.933 1.2-3.733 2.8-7.733 3.466-8.933.667-1.334 1.2-3.067 1.2-4 0-.934.8-3.2 1.734-5.067.933-1.867 2.533-6 3.6-9.333.933-3.334 2.666-7.2 3.6-8.667.933-1.467 1.733-3.867 1.733-5.333 0-2.534.8-4.267 6.667-14.667 6.933-12.4 7.6-13.2 12.533-13.867.533 0 2.8 1.334 5.067 3.2Zm-19.334-.933c1.334.8.267 4.133-4.133 13.067-3.2 6.533-7.333 16.666-9.2 22.533-5.067 15.6-10 30.267-11.467 33.333-2.933 6.534-5.333 12.534-7.466 19.334-1.334 4-3.6 9.733-4.934 12.8-1.333 2.933-2.4 6.4-2.4 7.6 0 3.6-6.666 16.666-8.933 17.6-3.2 1.2-4.933-1.2-3.2-4.534 1.733-3.066.133-7.466-2.8-8.4-1.333-.533-1.333-1.733 0-6.133.933-3.2 1.333-6.133.933-6.8-.8-1.333 9.867-26.8 18.134-43.2C651.933 107.933 656.333 98.867 663 85c7.6-15.733 10.4-18.533 14.933-15.6Zm44.934 2.533c3.2 1.6 4.533 3.067 4 4.4-.4 1.067-.934 2.534-1.067 3.334-.267.666-2.267 5.2-4.4 10-2.267 4.8-7.733 20-12.133 34-4.534 13.866-9.467 29.2-10.934 34-7.2 22.266-7.333 22.533-4.933 24.4 2 1.466 1.733 1.866-2.4 4.666-2.4 1.734-5.2 2.8-5.867 2.267-.8-.4-1.466-3.467-1.466-6.667 0-3.6-.667-6-1.867-6.4-2.533-1.066-3.467.134-3.467 4.534 0 3.6-5.6 9.2-9.2 9.2-2.533 0-4.4-6.8-2.933-10.534.667-1.866 2.667-8 4.267-13.466 1.6-5.467 3.466-10.934 4-12 2.8-5.2 10.533-22.934 11.333-25.867.4-1.867 1.6-4 2.667-4.933 1.066-.8 1.866-2 1.866-2.667 0-1.067 3.067-7.733 11.6-24.533C704.2 91.267 707.4 84.6 709 81c3.2-6.933 6.267-11.333 8.133-11.333.667 0 3.2 1.066 5.734 2.266ZM742.333 75h3.867l-1.733 4.933c-.934 2.8-4 9.334-6.667 14.534-2.667 5.2-4.8 9.866-4.8 10.4 0 .533-1.467 4.133-3.2 7.866-1.733 3.867-3.867 9.334-4.667 12.267-.933 2.933-2.133 6.533-2.666 8-4.4 10.933-6.934 18.667-8.934 27.333-1.333 5.467-4 13.2-6 17.067-3.466 6.8-3.733 6.933-4.133 3.333-.267-2.933-1.067-3.733-3.467-3.6-2.533.134-3.066-.4-2.533-2.666.8-3.867 6.4-23.6 7.6-26.8 3.333-9.2 7.2-20.8 8.267-25.334.8-2.933 2-5.866 2.533-6.666.667-.667 1.2-2.134 1.2-3.2 0-2.4 6-18 9.333-24.134C734.067 74.067 734.6 73.4 736.467 74.2c1.2.4 3.866.8 5.866.8Zm29.2 16.267c-.133 8.266.534 23.466 1.334 33.733 2.133 26.133 2.266 104.133.133 106.667-1.2 1.333-1.2 3.733-.133 8.933 2.4 12.267 4.133 36.933 4.133 60.133 0 21.467-.133 22.534-2.667 23.2-3.2.8-3.466 3.867-.533 5.467 2 1.067 2.267 5.067 2.667 30.4.666 41.467 1.066 51.6 2.266 53.6.667.8 1.067 9.2 1.2 18.667 0 19.733-1.866 26.133-11.6 40.666-3.2 4.934-7.866 12.934-10.133 17.867-7.867 16.8-20.667 33.733-23.867 31.733-1.466-.933-2.666-20.4-3.333-56-.4-16.933-.933-33.066-1.2-36-.8-7.333-2.4-26.266-2.933-36-.267-4.4-.8-12.533-1.2-18-2.8-39.866-2.934-79.066 0-98.666.533-4.134 2.4-52.667 2.4-63.334 0-2.266-.4-10.933-1.067-19.333-1.067-15.333-1.067-15.333 2.933-23.333 2.267-4.4 5.734-12.8 7.734-18.667 2-5.867 4.4-12.533 5.466-14.667.934-2.266 3.2-7.6 5.067-12 1.733-4.4 5.333-12.666 8-18.4 2.667-5.6 4.8-11.066 4.8-12 0-1.066 1.067-2.8 2.4-4 1.333-1.2 3.2-5.2 4.267-8.933.933-3.6 2.266-6.667 2.933-6.667.533 0 .933 6.8.933 14.934Zm-274.8 100.4 4.8 5.333-4 .8c-6.8 1.467-10.933 1.2-11.6-.667-.4-1.066-.4-5.333 0-9.6l.8-7.6 2.534 3.2c1.466 1.734 4.8 5.6 7.466 8.534Zm202.534-1.067c.4 1.333 2 3.733 3.466 5.333 1.467 1.734 2.134 3.067 1.334 3.067-.667 0-1.867 1.2-2.534 2.533-.666 1.467-5.333 6-10.533 10-11.467 9.067-17.333 10.667-37.467 9.867-17.466-.667-28.4-3.867-34.933-10-4.533-4.267-4.533-4.533-2.267-7.067 1.6-1.733 4.134-2.666 7.2-2.666 2.667 0 6.267-.934 8.134-2 6.266-3.6 6.933-3.734 10.533-1.734 3.867 2.267 8.267 1.067 13.467-3.6 2-1.866 3.066-2.133 3.866-.933.534.8 2.8 1.867 4.934 2.4 3.333.667 4.933 0 7.866-2.667 4.534-4.133 6.134-4.266 9.334-.8 3.2 3.467 5.866 3.334 10.666-.666 4.8-3.867 5.867-4 6.934-1.067Zm21.6 4.933c2 2.4 4 23.067 2.666 28.8-.533 2.534-1.066 13.334-1.066 24 0 10.667-.934 26.267-2 34.667-1.467 10.533-1.734 21.067-1.334 33.333.4 9.867.934 23.067 1.2 29.334.267 6.266.8 17.866 1.2 26 .534 8 1.2 20.533 1.467 27.866.4 7.2.933 13.467 1.333 14 1.2 2 2.534 42.4 2.667 76.534v35.866L723.267 529c-5.867 4.533-27.067 11.333-35.867 11.333-12.4 0-43.067-11.466-50.533-18.933-4.4-4.4-4.667-5.867-1.867-9.6 3.333-4.4 2.533-6.4-2.267-5.867-4.266.4-4.4.134-5.333-5.6-.667-3.333-1.467-11.066-1.733-17.333-.4-6.267-2.534-17.6-4.667-25.333-2-7.734-4.533-18.4-5.333-23.734-.934-5.2-2.134-9.6-2.8-9.6-.534 0-.8-.933-.4-2 .4-1.066.133-4.8-.667-8.266-1.733-7.467-3.2-25.2-2.933-33.734.133-3.333-.4-12.933-1.2-21.333-.8-8.4-1.867-18.667-2.134-22.667-.666-8.4-4-38.266-5.866-53.6-.667-5.6-1.334-14.933-1.467-20.666-.133-5.734-.533-11.067-1.067-11.734-.4-.8-.933-4.933-1.066-9.333-.4-15.067-1.734-24.133-4.4-29.467-2.4-4.533-2.534-5.333-.667-6.666 1.067-.8 2-2.534 2-3.734 0-4.266 4.133-2 13.733 7.334 13.867 13.733 27.334 18.933 48.934 18.8 16.4-.134 28.533-3.334 36.933-9.734 3.867-3.066 8.533-7.2 10.267-9.2 1.6-2 4.266-4.4 5.866-5.2 1.467-.8 3.867-3.333 5.2-5.466 2.534-4.4 4.534-5.067 6.934-2.134Zm-339.6 11.6c18.4 1.467 20 1.467 25.333-.933 6.533-2.933 12.133-3.067 37.733-.8 10.267.933 33.067 1.6 50.667 1.333 31.867-.266 32-.133 38.667 3.2 3.733 1.867 8.8 3.734 11.466 4.267 7.334 1.333 9.334 4.267 8.534 12.933-1.334 14.8-4.8 46.134-6 55.867-.8 5.467-1.734 12.4-2.134 15.333-1.333 9.734-1.6 13.2-3.733 39.334-1.067 14.266-2.4 36.533-2.8 49.333-.533 12.8-1.2 25.067-1.467 27.333-1.2 9.6-3.466 38.4-4 50-.4 11.867-3.866 41.334-5.2 45.067-.266.933-.933 7.2-1.333 14-.933 16.133-1.733 19.333-4.8 20.933-1.333.8-2.533 2.8-2.533 4.4 0 2.8-.4 2.934-14.267 2.934-18 0-46.933 1.733-54.933 3.333-9.2 1.733-39.467 2.533-50.134 1.333-5.066-.533-27.6-1.466-49.866-1.866-22.4-.534-40.934-1.2-41.334-1.334-2.933-1.733-27.6-2-41.733-.4-23.733 2.8-132.933 2.134-149.067-.933-18.8-3.333-20.533-3.867-23.733-5.867-2-1.333-8-2.266-16.267-2.8-7.333-.4-13.733-1.466-14.4-2.133-2.8-3.2-4.8-18.667-5.066-39.333-.134-12.134-1.067-26.534-1.867-32-1.867-11.6-1.867-12-.8-48.134.533-16 .267-29.066-.4-31.333-.667-2.133-1.6-14.667-2.133-27.867-.8-24.533-.934-25.866-3.467-46.533-.8-6.533-1.067-15.6-.533-20.267.8-7.333.533-9.2-1.867-13.066-2.533-4-2.667-5.334-1.467-10.8.8-3.467 1.867-12.534 2.534-20.134 1.2-15.733 2.266-18 12.666-25.866 4.934-3.734 9.2-5.734 14.267-6.667 7.467-1.333 52.4-2.933 77.467-2.533 11.066.133 15.2-.4 19.2-2.267 2.8-1.333 7.733-2.533 11.066-2.533 3.334-.134 8.934-1.2 12.4-2.4 4.8-1.734 8.8-2 16-1.334C229 209.267 253 209 274.333 207c11.334-.933 32.4-1.867 46.934-1.867 14.4-.133 26.533-.533 26.933-.933.4-.4 3.6-.267 7.067.267 3.6.666 15.2 1.866 26 2.666ZM96.333 553c5.867 1.867 12.534 3.333 14.667 3.333 2.267 0 6.133.667 8.667 1.467 2.533.8 19.733 1.867 38.666 2.267 41.467.933 41.067.933 80.667-.4 42.4-1.467 63.867-1.467 80-.267 10.8.8 51.867 2 98 2.8 10 .133 39.867-1.6 41.333-2.533 1.467-.934 26.934-2 44-1.734 7.734 0 16.534.134 19.6.134 3.867 0 5.734.533 5.734 1.6 0 1.6 2.933 5.2 13.466 16.266 1.467 1.734 5.067 6.534 7.734 10.667 2.8 4.267 9.6 13.333 15.066 20.267 14.534 18 18.134 32.266 8.534 34-4.4.8-6.534.666-36.134-2.534-9.466-1.066-21.2-2.266-26-2.666-4.8-.4-11.333-1.067-14.666-1.334-21.2-2-129.6-3.066-150-1.6-13.867 1.067-86.4 1.6-146.667 1.067-45.733-.4-46.267-.4-47.6 1.733-.667.934-1.067.934-1.067-.266 0-1.467-4.933-1.6-26.933-.934-14.933.534-29.733 1.2-33.067 1.467-8.133.8-18.8.533-58.133-1.467-12.267-.666-17.867-.533-18.4.534-.533.8-2.8 1.466-5.067 1.466-3.866 0-4-.133-3.2-4.666 1.867-9.467 13.734-30.8 22.934-40.934 2.533-2.933 5.2-6.533 5.733-8.266 1.333-3.2 15.733-23.2 21.2-29.067 3.2-3.467 3.867-3.6 16.8-3.6 10.667 0 15.867.667 24.133 3.2Zm303.734 82.667c4.4.533 6.266.4 5.6-.667-1.067-1.733 2.266-1.733 4-.133 1.466 1.333 5.866 2 11.066 1.733 2.134-.133 2.8-.8 2.134-2-.667-1.067-.267-.933 1.333.267 1.6 1.466 7.733 2 23.867 2.4 11.866.133 29.866.533 40 .8 10 .133 18.266-.134 18.266-.667 0-.667 1.334-.267 3.067.8 1.6 1.2 6 2.4 9.6 2.8 3.733.4 8.8 1.333 11.333 2.133 2.534.667 14.267 1.6 26 2 16 .4 21.467 1.067 21.734 2.4.933 4.267-3.334 5.067-25.334 4.8-12-.266-27.466-.266-34.4-.266-40.4.4-70.266.133-82-.934-20.4-1.866-72.533-.4-79.333 2.267-1.867.667-6.933 1.333-11.333 1.333-17.6.267-51.734 1.734-68.667 3.067-14.4 1.067-33.2 2.267-46 2.8-.667 0-8.8-.4-18-.933-9.2-.534-24.4-.8-34-.667-9.467.133-20.933.4-25.333.533-4.4 0-11.6-.4-16-.933S120.333 657.267 109 657c-29.067-.933-43.067-1.733-54.667-3.333-12.666-1.734-13.466-2-16.533-3.334-1.6-.666-7.733-.533-14.667.4-12.933 1.6-14.8 1.067-15.733-4.266-.267-1.734 1.067-3.467 4.267-5.334 4.4-2.666 6.133-2.8 27.333-2.133 33.6.8 48.267.8 88-.667 19.867-.666 40.267-1.2 45.333-1.333 5.2 0 10-.4 10.934-1.067.8-.533 2.933-.4 4.666.134 8.134 3.066 136.267 2.4 177.734-.8 13.466-1.067 24.8-.934 34.4.4Z"/>
  <path fill="#000" d="M323 234.6c-7.2 1.333-23.067 2-48 2.267-20.934.133-41.2.933-46 1.866-4.8.8-14 2.134-20.667 2.934-22.533 2.666-32 3.866-49.333 6-9.467 1.066-25.067 2.933-34.667 4-9.467 1.066-21.333 2.933-26.267 4-4.933 1.066-10.933 2-13.466 2-8.934 0-9.067.266-10.534 32.8-1.733 41.6-1.733 40.4.267 49.866 1.333 6.134 1.867 19.334 2 45.334.267 58.533 2.8 104.666 6 110.666 2.933 5.334 5.2 5.6 60.533 5.734 48.534.133 72.8-.8 75.867-2.667 1.2-.667 4.533-.933 42.267-2.267 32.666-1.066 60.8-2.666 77.333-4.4 4.4-.4 108.133-2 129.6-1.866 5.6 0 13.733.666 18.267 1.466 5.866 1.067 8.8 1.067 10.8 0 1.6-.8 4-1.066 5.333-.666 1.467.533 4.267-.134 6.267-1.334l3.733-2.133-.133-16.267c-.134-8.933.4-19.333 1.2-22.933 2.666-14 4.533-44.667 2.533-44.667-1.6 0-2.133 3.467-4.933 28.667-4.4 40.8-6 51.867-7.6 53.067-.934.533-8.267.666-16.4.133-18.267-1.2-26.534-1.2-60 0-14.667.533-39.067 1.2-54.134 1.467-15.066.133-32.8.666-39.333 1.2-17.467 1.2-33.333 2-57.2 2.8-40.533 1.466-52.533 2.133-66.267 3.733-12.133 1.467-49.6 1.867-104.533 1.067-18.4-.134-18.8-.534-19.867-18.8-.4-7.734-1.2-16.4-1.6-19.334-.266-2.933-.933-12.266-1.2-20.666-.266-8.4-.8-23.734-1.2-34-.266-10.267-.933-23.734-1.2-30-.4-6.267-.133-13.467.4-16.134 1.067-4.666.8-6.4-3.866-26-.8-3.733-.8-7.066.133-10 .8-2.533 1.6-16.266 2-30.533.4-15.6 1.2-26.533 2.133-27.6.8-.933 4-1.733 7.2-1.733 3.067 0 7.334-.667 9.2-1.334 2-.8 9.334-2 16.4-2.666 13.2-1.334 34-4 58.934-7.334 7.733-1.066 17.866-2.266 22.666-2.8 4.8-.4 16.8-2 26.667-3.466C236.6 241.933 247 241.4 272.2 241.4c22.4.133 36.933-.533 49.333-2.133 17.733-2.4 65.2-2.934 112.8-1.334 18.933.667 49.067 3.734 61.733 6.4 3.467.8 8.8 1.334 11.6 1.334 6.934 0 9.2 3.466 10.8 16.266 2.267 16.934 1.6 27.067-2 32.8-3.733 5.6-5.466 13.334-4.133 17.6 1.333 4.134 4.133 1.2 5.2-5.466.533-3.067 2.4-8 4.133-11.2 4-6.667 4.267-15.067 1.467-34.134C520.2 242.2 520.2 242.2 509.4 241.267 499.266 240.333 473.133 237 459 235c-5.067-.8-35.467-1.6-67.334-1.867-45.6-.266-60.266 0-68.666 1.467Z"/>
  <path fill="#000" d="M515.667 337.8c0 .666.667.933 1.333.533.8-.4 1.334-1.067 1.334-1.467 0-.266-.534-.533-1.334-.533-.666 0-1.333.667-1.333 1.467Zm-28 178.933c-5.067 2.534-6.133 3.734-7.067 8.267-2.266 11.2 2.267 14.933 12.667 10.267 9.867-4.4 14-11.867 9.467-17.334-3.6-4.266-8.267-4.666-15.067-1.2Zm8.533 3.067c2.8 1.067 2.667 6.267-.133 8.933-1.333 1.067-4 2.534-6 2.934-3.467.933-3.733.666-3.733-2.934 0-4.133 2.133-7.6 5.333-8.8 1.067-.4 2.133-.8 2.267-.8.133-.133 1.066.267 2.266.667ZM233.666 808.333c-.4.667-.133 1.334.534 1.334.8 0 1.466-.667 1.466-1.334 0-.8-.266-1.333-.533-1.333-.4 0-1.067.533-1.467 1.333Z"/>
</svg>
