<svg xmlns="http://www.w3.org/2000/svg" width="60" height="60" fill="none" viewBox="0 0 60 60">
  <mask id="a" width="60" height="60" x="0" y="0" maskUnits="userSpaceOnUse" style="mask-type:alpha">
    <path fill="#D9D9D9" d="M0 0h60v60H0z"/>
  </mask>
  <g mask="url(#a)">
    <path fill="#1C1B1F" d="M12.5 52.5c-1.375 0-2.552-.49-3.531-1.469-.98-.979-1.469-2.156-1.469-3.531v-35c0-1.375.49-2.552 1.469-3.531.979-.98 2.156-1.469 3.531-1.469H40L52.5 20v27.5c0 1.375-.49 2.552-1.469 3.531-.979.98-2.156 1.469-3.531 1.469h-35Zm0-5h35v-25h-10v-10h-25v35Zm5-5h25v-5h-25v5Zm0-20H30v-5H17.5v5Zm0 10h25v-5h-25v5Z"/>
  </g>
</svg>
