<svg xmlns="http://www.w3.org/2000/svg" width="60" height="60" fill="none" viewBox="0 0 60 60">
  <mask id="a" width="60" height="60" x="0" y="0" maskUnits="userSpaceOnUse" style="mask-type:alpha">
    <path fill="#D9D9D9" d="M0 0h60v60H0z"/>
  </mask>
  <g mask="url(#a)">
    <path fill="#1C1B1F" d="M12.5 10v15.063V25v25-40Zm5 25h8.75a14.85 14.85 0 0 1 1.375-2.688A14.234 14.234 0 0 1 29.5 30h-12v5Zm0 10h7.938a14.895 14.895 0 0 1-.407-2.5 14.33 14.33 0 0 1 .032-2.5H17.5v5Zm-5 10c-1.375 0-2.552-.49-3.531-1.469C7.989 52.552 7.5 51.375 7.5 50V10c0-1.375.49-2.552 1.469-3.531C9.948 5.489 11.125 5 12.5 5h20l15 15v6.25a14.43 14.43 0 0 0-2.438-.781 20.503 20.503 0 0 0-2.562-.407V22.5H30V10H12.5v40h15.063c.666 1 1.416 1.927 2.25 2.781A14.76 14.76 0 0 0 32.563 55H12.5Zm28.75-7.5c1.75 0 3.23-.604 4.438-1.813C46.895 44.48 47.5 43 47.5 41.25c0-1.75-.604-3.23-1.813-4.438C44.48 35.605 43 35 41.25 35c-1.75 0-3.23.604-4.438 1.813C35.605 38.02 35 39.5 35 41.25c0 1.75.604 3.23 1.813 4.438C38.02 46.895 39.5 47.5 41.25 47.5ZM54 57.5l-6.75-6.75a10.095 10.095 0 0 1-2.844 1.313 11.43 11.43 0 0 1-3.156.437c-3.125 0-5.781-1.094-7.969-3.281C31.094 47.03 30 44.375 30 41.25s1.094-5.781 3.281-7.969C35.47 31.094 38.125 30 41.25 30s5.781 1.094 7.969 3.281c2.187 2.188 3.281 4.844 3.281 7.969a11.43 11.43 0 0 1-.438 3.156 10.095 10.095 0 0 1-1.312 2.844L57.5 54 54 57.5Z"/>
  </g>
</svg>
