<svg xmlns="http://www.w3.org/2000/svg" width="60" height="60" fill="none" viewBox="0 0 60 60">
  <mask id="a" width="60" height="60" x="0" y="0" maskUnits="userSpaceOnUse" style="mask-type:alpha">
    <path fill="#D9D9D9" d="M0 0h60v60H0z"/>
  </mask>
  <g mask="url(#a)">
    <path fill="#1C1B1F" d="M25 42.5h10v-5H25v5Zm0-10h17.5v-5H25v5Zm-7.5-10h25v-5h-25v5ZM16.562 55c-3.291 0-6.093-1.156-8.406-3.469-2.312-2.312-3.469-5.114-3.469-8.406 0-2.375.615-4.5 1.844-6.375 1.23-1.875 2.844-3.292 4.844-4.25H5v-5h15v15h-5v-6.063c-1.542.334-2.813 1.126-3.813 2.376s-1.5 2.687-1.5 4.312c0 1.917.678 3.542 2.032 4.875 1.354 1.333 2.969 2 4.844 2v5ZM25 52.5v-5h22.5v-35h-35v10h-5v-10c0-1.375.49-2.552 1.469-3.531.979-.98 2.156-1.469 3.531-1.469h35c1.375 0 2.552.49 3.531 1.469.98.979 1.469 2.156 1.469 3.531v35c0 1.375-.49 2.552-1.469 3.531-.979.98-2.156 1.469-3.531 1.469H25Z"/>
  </g>
</svg>
