<svg xmlns="http://www.w3.org/2000/svg" width="60" height="60" fill="none" viewBox="0 0 60 60">
  <mask id="a" width="60" height="60" x="0" y="0" maskUnits="userSpaceOnUse" style="mask-type:alpha">
    <path fill="#D9D9D9" d="M0 0h60v60H0z"/>
  </mask>
  <g mask="url(#a)">
    <path fill="#25253E" d="M10 52.5c-1.375 0-2.552-.49-3.531-1.469C5.489 50.052 5 48.875 5 47.5v-30h5v30h37.5v5H10Zm10-10c-1.375 0-2.552-.49-3.531-1.469C15.489 40.052 15 38.875 15 37.5v-30h42.5v30c0 1.375-.49 2.552-1.469 3.531-.979.98-2.156 1.469-3.531 1.469H20Zm0-5h32.5v-25H20v25Zm5-7.5h10V17.5H25V30Zm12.5 0h10v-5h-10v5Zm0-7.5h10v-5h-10v5Z"/>
  </g>
</svg>
