<svg xmlns="http://www.w3.org/2000/svg" width="60" height="60" fill="none" viewBox="0 0 60 60">
  <mask id="a" width="60" height="60" x="0" y="0" maskUnits="userSpaceOnUse" style="mask-type:alpha">
    <path fill="#D9D9D9" d="M0 0h60v60H0z"/>
  </mask>
  <g mask="url(#a)">
    <path fill="#25253E" d="M30 52.5c-6.292 0-11.615-.969-15.969-2.906C9.677 47.656 7.5 45.292 7.5 42.5v-25c0-2.75 2.198-5.104 6.594-7.063C18.49 8.48 23.792 7.5 30 7.5s11.51.98 15.906 2.938C50.302 12.396 52.5 14.75 52.5 17.5v25c0 2.792-2.177 5.156-6.531 7.094C41.615 51.53 36.292 52.5 30 52.5Zm0-29.938c3.708 0 7.438-.53 11.188-1.593 3.75-1.063 5.854-2.198 6.312-3.407-.458-1.208-2.552-2.354-6.281-3.437C37.489 13.042 33.75 12.5 30 12.5c-3.792 0-7.51.531-11.156 1.594-3.646 1.062-5.76 2.219-6.344 3.469.583 1.25 2.698 2.395 6.344 3.437A40.412 40.412 0 0 0 30 22.563ZM30 35c1.75 0 3.438-.083 5.063-.25a44.472 44.472 0 0 0 4.656-.719 34.02 34.02 0 0 0 4.187-1.156c1.313-.458 2.51-.98 3.594-1.563v-7.5a24.857 24.857 0 0 1-3.594 1.563 34.02 34.02 0 0 1-4.187 1.156c-1.48.313-3.032.552-4.657.719-1.624.167-3.312.25-5.062.25a51.48 51.48 0 0 1-5.125-.25 44.037 44.037 0 0 1-4.719-.719A32.532 32.532 0 0 1 16 25.375a22.68 22.68 0 0 1-3.5-1.563v7.5a22.68 22.68 0 0 0 3.5 1.563 32.53 32.53 0 0 0 4.156 1.156c1.48.313 3.052.552 4.719.719A51.48 51.48 0 0 0 30 35Zm0 12.5a40 40 0 0 0 5.844-.438 41.862 41.862 0 0 0 5.468-1.156c1.667-.479 3.063-1.02 4.188-1.625 1.125-.604 1.792-1.218 2-1.843v-6.126a24.857 24.857 0 0 1-3.594 1.563 34.02 34.02 0 0 1-4.187 1.156c-1.48.313-3.032.552-4.657.719-1.624.167-3.312.25-5.062.25a51.48 51.48 0 0 1-5.125-.25 44.037 44.037 0 0 1-4.719-.719A32.532 32.532 0 0 1 16 37.875a22.68 22.68 0 0 1-3.5-1.563V42.5c.208.625.865 1.23 1.969 1.813s2.49 1.114 4.156 1.593c1.667.48 3.5.865 5.5 1.157 2 .291 3.958.437 5.875.437Z"/>
  </g>
</svg>
