<svg xmlns="http://www.w3.org/2000/svg" width="60" height="60" fill="none" viewBox="0 0 60 60">
  <mask id="a" width="60" height="60" x="0" y="0" maskUnits="userSpaceOnUse" style="mask-type:alpha">
    <path fill="#D9D9D9" d="M0 0h60v60H0z"/>
  </mask>
  <g mask="url(#a)">
    <path fill="#25253E" d="M10 52.5c-1.375 0-2.552-.49-3.531-1.469C5.489 50.052 5 48.875 5 47.5v-35c0-1.375.49-2.552 1.469-3.531C7.448 7.989 8.625 7.5 10 7.5h40c1.375 0 2.552.49 3.531 1.469.98.979 1.469 2.156 1.469 3.531v35c0 1.375-.49 2.552-1.469 3.531-.979.98-2.156 1.469-3.531 1.469H10Zm0-5h40v-35H10v35Zm2.5-5H25v-5H12.5v5Zm23.875-5L48.75 25.125l-3.563-3.563-8.812 8.875-3.563-3.562-3.5 3.563 7.063 7.062Zm-23.875-5H25v-5H12.5v5Zm0-10H25v-5H12.5v5Z"/>
  </g>
</svg>
