<svg xmlns="http://www.w3.org/2000/svg" width="60" height="60" fill="none" viewBox="0 0 60 60">
  <mask id="a" width="60" height="60" x="0" y="0" maskUnits="userSpaceOnUse" style="mask-type:alpha">
    <path fill="#D9D9D9" d="M0 0h60v60H0z"/>
  </mask>
  <g mask="url(#a)">
    <path fill="#25253E" d="M22.5 22.5v-5H45v5H22.5Zm0 7.5v-5H45v5H22.5ZM30 55H15c-2.083 0-3.854-.73-5.313-2.188C8.23 51.355 7.5 49.584 7.5 47.5V40H15V5h37.5v22.563a9.415 9.415 0 0 0-2.531.093 9.464 9.464 0 0 0-2.469.782V10H20v30h15l-5 5H12.5v2.5c0 .708.24 1.302.719 1.781.479.48 1.073.719 1.781.719h15v5Zm5 0v-7.688l13.813-13.75a3.407 3.407 0 0 1 1.25-.812 4 4 0 0 1 1.374-.25c.5 0 .98.094 1.438.281.458.188.875.469 1.25.844l2.313 2.313c.333.374.593.791.78 1.25.188.458.282.916.282 1.374 0 .459-.083.928-.25 1.407a3.36 3.36 0 0 1-.813 1.281L42.688 55H35Zm3.75-3.75h2.375l7.563-7.625-1.126-1.188-1.187-1.124-7.625 7.562v2.375Zm8.813-8.813-1.188-1.124 2.313 2.312-1.126-1.188Z"/>
  </g>
</svg>
