<svg xmlns="http://www.w3.org/2000/svg" width="60" height="60" fill="none" viewBox="0 0 60 60">
  <mask id="a" width="60" height="60" x="0" y="0" maskUnits="userSpaceOnUse" style="mask-type:alpha">
    <path fill="#D9D9D9" d="M0 0h60v60H0z"/>
  </mask>
  <g mask="url(#a)">
    <path fill="#1C1B1F" d="M0 45v-3.938c0-1.791.917-3.25 2.75-4.374C4.583 35.562 7 35 10 35c.542 0 1.063.01 1.563.031.5.021.979.073 1.437.157a10.404 10.404 0 0 0-1.313 2.75 10.245 10.245 0 0 0-.437 3V45H0Zm15 0v-4.063c0-1.333.365-2.552 1.094-3.656.729-1.104 1.76-2.073 3.093-2.906 1.334-.833 2.928-1.458 4.782-1.875 1.854-.417 3.864-.625 6.031-.625 2.208 0 4.24.208 6.094.625 1.854.417 3.448 1.042 4.781 1.875 1.333.833 2.354 1.802 3.063 2.906A6.634 6.634 0 0 1 45 40.938V45H15Zm33.75 0v-4.063c0-1.083-.135-2.104-.406-3.062a9.788 9.788 0 0 0-1.219-2.688c.458-.083.927-.135 1.406-.156.48-.02.969-.031 1.469-.031 3 0 5.417.552 7.25 1.656C59.083 37.76 60 39.23 60 41.063V45H48.75Zm-28.438-5H39.75c-.417-.833-1.573-1.563-3.469-2.188-1.896-.624-3.99-.937-6.281-.937-2.292 0-4.385.313-6.281.938-1.896.624-3.032 1.354-3.407 2.187ZM10 32.5c-1.375 0-2.552-.49-3.531-1.469C5.489 30.052 5 28.875 5 27.5c0-1.417.49-2.604 1.469-3.563C7.448 22.98 8.625 22.5 10 22.5c1.417 0 2.604.48 3.563 1.438C14.52 24.895 15 26.082 15 27.5c0 1.375-.48 2.552-1.438 3.531-.958.98-2.145 1.469-3.562 1.469Zm40 0c-1.375 0-2.552-.49-3.531-1.469C45.489 30.052 45 28.875 45 27.5c0-1.417.49-2.604 1.469-3.563.979-.958 2.156-1.437 3.531-1.437 1.417 0 2.604.48 3.563 1.438C54.52 24.895 55 26.082 55 27.5c0 1.375-.48 2.552-1.438 3.531-.958.98-2.145 1.469-3.562 1.469ZM30 30c-2.083 0-3.854-.73-5.313-2.188C23.23 26.355 22.5 24.584 22.5 22.5c0-2.125.73-3.906 2.188-5.344C26.145 15.72 27.916 15 30 15c2.125 0 3.906.719 5.344 2.156C36.78 18.594 37.5 20.375 37.5 22.5c0 2.083-.719 3.854-2.156 5.313C33.906 29.27 32.125 30 30 30Zm0-5c.708 0 1.302-.24 1.781-.719.48-.479.719-1.073.719-1.781s-.24-1.302-.719-1.781C31.302 20.239 30.708 20 30 20s-1.302.24-1.781.719c-.48.479-.719 1.073-.719 1.781s.24 1.302.719 1.781c.479.48 1.073.719 1.781.719Z"/>
  </g>
</svg>
